<svg xmlns="http://www.w3.org/2000/svg" xmlns:xlink="http://www.w3.org/1999/xlink" width="73" height="32"><defs><path id="a" d="M.094.015h12.892v10.717H.094z"/><path id="c" d="M0 .238h28.758v26.31H0z"/></defs><g fill="none" fill-rule="evenodd"><path d="M0 0h73v32H0z"/><path fill="#F80" fill-rule="nonzero" d="M36.058 16.07h3.76l-.679 2.538h-7.487l.408-2.298 3.232-2.442c1.615-1.173 2.177-1.783 2.293-2.41.155-.836-.325-1.286-1.24-1.286-.756 0-1.633.225-2.632.675l-.598-2.153c1.228-.643 2.854-1.092 4.09-1.092 1.141 0 1.998.321 2.583.98.604.642.803 1.478.616 2.49a4.67 4.67 0 01-.88 1.977c-.447.594-1.163 1.253-2.165 1.976l-1.301 1.045zm6.616-.178c.603.386 1.162.58 1.66.58.82 0 1.38-.515 1.544-1.399l1.328-7.182h2.683l-1.34 7.246c-.21 1.141-.714 2.041-1.53 2.716-.816.675-1.794 1.012-2.935 1.012a4.318 4.318 0 01-2.749-.948l1.339-2.025zm10.327-1.012h2.25l-.409-3.872-1.84 3.872zm2.653 3.728l-.169-1.607h-3.502l-.764 1.607h-2.892l5.55-10.717h3.116l1.57 10.717h-2.909z"/><g transform="translate(59.327 7.876)"><mask id="b" fill="#fff"><use xlink:href="#a"/></mask><path fill="#F80" fill-rule="nonzero" d="M.094 10.732L2.076.015h2.699L6.674 4.69 10.287.015h2.699l-1.982 10.717H8.321l1.123-6.074L6.86 8.032H5.237L3.901 4.658l-1.124 6.074z" mask="url(#b)"/></g><path fill="#0094D9" fill-rule="nonzero" d="M29.353 27.52l1.096-1.699c.303.219.644.407 1.036.542a3.39 3.39 0 001.11.198c.344 0 .542-.114.587-.354.038-.209-.15-.375-.565-.5l-.76-.23c-1.076-.323-1.566-1.115-1.363-2.21a2.466 2.466 0 01.966-1.563c.532-.395 1.173-.594 1.914-.594.385 0 .801.063 1.256.199.454.135.861.302 1.206.52l-1.054 1.585c-.526-.313-1.05-.47-1.57-.47-.428 0-.658.115-.702.355-.036.198.124.344.47.448l.76.23c1.177.343 1.72 1.125 1.53 2.157-.276 1.49-1.354 2.303-3.033 2.303a4.894 4.894 0 01-2.884-.917m9.597-1.74h1.158l-.182-2.116-.975 2.115zm1.377 2.48l-.08-.917h-2.013l-.42.917h-2.137l3.527-6.951h2.325l.935 6.95h-2.137zm3.382 0l1.285-6.951h1.981l1.122 2.782 2.151-2.782h1.981l-1.286 6.951h-1.98l.651-3.523-1.376 1.803H47.05l-.709-1.803-.652 3.523zm12.397-3.919c.386 0 .68-.24.748-.604.067-.365-.139-.605-.525-.605h-.604l-.224 1.21h.605zm.665-3.032c.772 0 1.346.218 1.732.666.387.449.519 1.032.384 1.762s-.483 1.313-1.035 1.761c-.552.448-1.208.667-1.979.667h-.71l-.386 2.095h-1.981l1.285-6.951h2.69zM61.8 25.78h1.156l-.182-2.116-.975 2.115zm1.375 2.48l-.08-.917h-2.013l-.42.917h-2.136l3.527-6.951h2.324l.935 6.95h-2.137zm3.382 0l1.285-6.951h1.981l-1.285 6.951z"/><g transform="translate(0 3)"><mask id="d" fill="#fff"><use xlink:href="#c"/></mask><path fill="#F80" fill-rule="nonzero" d="M21.088 4.11a12.29 12.29 0 00-2.328-.567v-.727h.375a1.29 1.29 0 100-2.579h-3.966a1.29 1.29 0 000 2.58h.375v.606H5.2c-.554 0-1.05.415-1.08.968-.03.59.439 1.078 1.022 1.078h2.213c.51 0 1.078.31 1.078 1.022 0 .713-.624 1.023-1.078 1.023h-5.98c-.89 0-1.348.432-1.373.975-.028.588.499 1.07 1.087 1.07H5.08a1.022 1.022 0 011.002 1.081c-.032.55-.526.962-1.078.962H1.828c-.554 0-1.05.415-1.08.968-.03.59.439 1.078 1.022 1.078h5.241l.001.054a8.97 8.97 0 0116.359-1.9A8.971 8.971 0 0112.627 24.75c-.335-.061-.67-.13-1.008-.213l-.23.407c4.814 2.757 10.279 1.797 13.832-1.638C31.4 17.383 29.145 7.005 21.088 4.11" mask="url(#d)"/></g><path fill="#F80" fill-rule="nonzero" d="M20.973 15.42c-2.675.787-10.798 3.225-12.847 4.406l-.001.001c-1.58.912-2.228 2.744-1.449 4.092.778 1.349 2.69 1.703 4.268.791 2.046-1.18 8.222-6.999 10.242-8.922.166-.159.007-.433-.213-.368"/></g></svg>