<svg xmlns="http://www.w3.org/2000/svg" xmlns:xlink="http://www.w3.org/1999/xlink" viewBox="0 0 1000 358.81" xmlns:v="https://vecta.io/nano"><path d="M-928.47 33.5a6.23 6.23 0 0 0-6.45-3.83c-2.83.3-5 2.48-5.45 5.15l-.02.02s-9.9-4.76-7.33.8c1.73 3.76 5.08 7.66 7.1 9.94 0 0 11.75-.2 15.1-1.67 1.47-2.74 3.52-7.46 4.33-11.2 1.24-5.75-6.63.27-7.28.78" fill="#93bf3e"/><path d="M-890.34 191.3c0 25.44-20.62 46.08-46.07 46.08s-46.07-20.63-46.07-46.08c0-3.5 2.85-6.35 6.35-6.35 3.5 0 6.36 2.84 6.36 6.35h.01c0 18.42 14.93 33.35 33.35 33.35s33.35-14.93 33.35-33.35h.02a6.35 6.35 0 0 1 6.35-6.35c3.5 0 6.35 2.84 6.35 6.35" fill="#fff"/><path d="M-901.1 113.68l-6.08-52.53a4.11 4.11 0 0 0-1.89-2.7l-21.14-10.12-7 .8-17 14.13c-.1.07-.5.4-.5.4-.86.82-1.3 1.97-1.25 3.12l.08.65c-.01-.02 6 51.87 6 51.87l48.8-5.64z" fill="#93bf3e"/><path d="M-910.86 46.2c-.52-5.1-2.37-11-2.37-11l-15 8.45a7.15 7.15 0 0 0-4.85-1.85 7.17 7.17 0 0 0-5.64 2.78l-16.06-5.12s-1 6.72-.5 11.82c.54 5.2 2.78 10.46 2.78 10.46l14.03-8c1.33 1.53 3.3 2.5 5.48 2.5 2.76-.02 5.13-1.58 6.33-3.85l15.72 5.1c-.01.01.6-6.1.07-11.3" fill="#0aaf58"/><path d="M-923.55 126.94l73.76-4.34.67.06 5.54-22a4.99 4.99 0 0 0-3.62-6.06l-67.75-17.07c-2.67-.67-5.38.95-6.06 3.62l-11.68 46.33 9.14-.54" fill="#e20a7e"/><g fill="#f19021"><path d="M-881.25 124.43l9.8-35.47-19.5-4.9-11.5 41.64 21.2-1.26"/><path d="M-850.73 78.17c-.64-1.1-1.4-2.04-2.28-2.78-7.64-6.52-19.37 3.63-23.35 7.52-.73-1.2-1.9-2.13-3.37-2.5a5.44 5.44 0 0 0-4.09.58c-2.26-5.52-8.7-18.63-18.06-15.9-1.1.32-2.17.86-3.2 1.6-3.2 2.3-3.53 4.8-3.23 6.46 1.23 6.87 16.52 11.74 21.8 13.23.27 2.2 1.83 4.1 4.1 4.67a5.49 5.49 0 0 0 6.1-2.6l.2.03c5.02.76 21.68 2.8 25.7-3.12.96-1.42 1.68-3.8-.32-7.22m-51.16-4.28c-.88-.66-.74-2.1-.2-2.8.35-.46 1.12-.9 1.66-1.02 3.74-1.1 7.78 4.56 10.4 9.8-5.73-2.03-9.74-4.38-11.85-5.96m47.2 8.6c-1.37 2-7.6 2.16-15.15 1.55 4.52-3.7 10.5-7.22 13.48-4.7 1.64.98 2.1 2.5 1.67 3.14m-163.95 50.2c.5-.1.97-.17 1.46-.2l96.05-5.66-8.65-39.13c-.58-2.6-3.15-4.25-5.75-3.67l-84.78 18.73c-2.6.57-4.24 3.15-3.67 5.75l5.34 24.2z"/></g><path d="M-956 79.34l.28-.22-.28.22" fill="#fff"/><g fill="#df2127"><path d="M-953.6 128.73l-8.64-39.1-30.78 6.8 7.56 34.2 31.86-1.9"/><path d="M-953.76 68.76c-1.34-.66-2.7-1.08-4.03-1.24-10.95-1.33-15.95 13.9-17.7 21.13-1.06-.55-2.3-.75-3.57-.47a5.25 5.25 0 0 0-3.14 2.06c-4.65-5.62-16.05-17.44-25.4-11.3-1.13.73-2.15 1.7-3.06 2.9-2.82 3.7-2.34 6.6-1.42 8.36 3.82 7.5 23.54 7.57 29.5 7.42l1.44-.04c1.2.92 2.8 1.33 4.37.98 1.53-.34 2.75-1.3 3.47-2.56l1.38-.64c5.4-2.5 23.05-11.3 23.15-19.72.02-2-.84-4.8-5-6.87m-52 19.5c-.6-.78-.72-1.88-.07-2.73.5-.65 1.02-1.16 1.56-1.52 3.83-2.5 10.3 2.47 15.02 7.45-8.9-.4-15.15-1.42-16.5-3.2m37.07-1.38c2-6.44 5.5-13.63 9.97-13.1.63.08 1.32.3 2.03.65.94.46 1.56 1 1.56 1.3-.02 2.22-5.9 6.92-13.56 11.13"/></g><path d="M-841.88 309.12c-8.9-40.15-14.7-113.86-2.07-175.9a6.39 6.39 0 0 0-6.08-6.02l-166.87 9.85c-3.33.2-5.97 2.96-5.97 6.35 0 .13.03.26.04.4 6.5 37.77 8.7 104.32-4.74 166.2.1 3 2.3 5.48 5.2 6h175.14a6.37 6.37 0 0 0 5.36-6.29 2.61 2.61 0 0 0-.01-.56" fill="#0094d9"/><path d="M-896.74 173.47a6.32 6.32 0 0 1-6.31-6.31c0-3.5 2.82-6.32 6.3-6.32s6.32 2.82 6.32 6.32a6.32 6.32 0 0 1-6.32 6.31m-78.87.3a6.31 6.31 0 0 1-6.31-6.31c0-3.5 2.82-6.3 6.3-6.3a6.31 6.31 0 1 1 0 12.62m85.23 18.23c0 25.28-20.5 45.77-45.78 45.77-25.27 0-45.76-20.5-45.76-45.77 0-3.5 2.82-6.3 6.3-6.3a6.32 6.32 0 0 1 6.31 6.31h.01c0 18.3 14.83 33.13 33.13 33.13s33.14-14.83 33.14-33.13h.01c0-3.5 2.82-6.3 6.3-6.3s6.32 2.82 6.32 6.3" fill="#fff"/><g fill="#0094d9"><path d="M-393.35 143.72l-.57.06-.5.28c-11 6.3-20.42 18.72-24 31.66l-1.57 5.66 5.36-2.4c6.73-3.02 28.27-2.93 45.43 8.02 14.5 9.24 22.3 24.05 22.57 42.77 0 44.82-32.08 54-40.67 54-34.2 0-41.9-39.3-41.9-53.08V79.57h-2.77c-16.53 0-31.88 7.68-42.12 21.07l-.57.74v127.96c0 19.1 7.74 46.36 29.47 65.66 16.6 14.77 35 21.65 57.86 21.65 23.84 0 85.73-15.54 85.73-86.53-.2-21.28-6.25-38.48-19-54.13-22.6-27.7-59.4-33.77-72.75-32.27zm212.15-18.7c12.6 0 22.84-10.24 22.84-22.82 0-12.6-10.24-22.84-22.84-22.84s-22.84 10.24-22.84 22.84c0 12.58 10.24 22.82 22.84 22.82zm-22.42 40.12l-.57.75v150.35h2.77c16.3 0 32.54-7.76 42.4-20.25l.6-.75V144.23h-2.77c-16.53 0-32.4 7.82-42.43 20.92zm-319.34-85.48c-12.6 0-22.84 10.25-22.84 22.84 0 12.58 10.24 22.82 22.84 22.82s22.84-10.24 22.84-22.82c0-12.6-10.25-22.84-22.84-22.84zm-22.44 85.78l-.57.75v150.34h2.77c16.3 0 32.54-7.76 42.4-20.25l.6-.75v-151h-2.77c-16.54-.01-32.4 7.82-42.44 20.92zm-189.72-21.73l-.57.06-.5.28c-11 6.3-20.42 18.72-23.98 31.66l-1.56 5.66 5.35-2.4c6.73-3.02 28.27-2.93 45.43 8.02 14.5 9.24 22.3 24.05 22.57 42.77 0 44.82-32.1 54-40.68 54-34.2 0-41.9-39.3-41.9-53.08l.01-151.1h-2.77c-16.53 0-31.9 7.68-42.13 21.07l-.57.74v127.96c0 19.1 7.74 46.36 29.47 65.66 16.62 14.77 35 21.65 57.87 21.65 23.85 0 85.73-15.54 85.73-86.53-.2-21.28-6.26-38.48-19.02-54.13-22.6-27.7-59.45-33.8-72.75-32.27z"/><use xlink:href="#B"/><use xlink:href="#B" x="341.77"/></g><g fill="#fff"><path d="M182.83 50.9c-.52-5.1-2.35-10.94-2.35-10.94l-14.94 8.4a7.06 7.06 0 0 0-4.82-1.83c-2.3.01-4.3 1.1-5.6 2.76l-15.98-5.1s-1 6.68-.5 11.76c.54 5.17 2.76 10.42 2.76 10.42l13.96-7.97c1.33 1.53 3.28 2.5 5.46 2.48 2.75-.02 5.12-1.57 6.3-3.83l15.64 5.08c-.01.01.6-6.07.07-11.24zm18.22 43.48c-9.6-3.18-15.95-7-18.9-11.42l-3.4-.86c-2.66-.67-5.36.95-6.03 3.6l-2.63 10.43 7.66 34.68 13.43-.8 9.86-35.64zm45.13 4.72l-5.9-1.5c-2.94.97-6.6 1.46-11.06 1.46-3.1 0-6.1-.24-8.55-.5l-8.35 30.2 31.06-1.83.24.02a7.93 7.93 0 0 1 .67.06l5.5-21.9c.66-2.66-.94-5.36-3.6-6.03zm-3.5-16.36c-.64-1.1-1.4-2.03-2.27-2.76-7.6-6.5-19.27 3.6-23.23 7.48-.73-1.2-1.9-2.13-3.36-2.5-1.45-.36-2.9-.12-4.07.57-2.26-5.5-8.66-18.54-17.97-15.8-1.1.32-2.16.86-3.2 1.6-3.2 2.3-3.5 4.77-3.2 6.43 1.22 6.83 16.43 11.68 21.7 13.16a5.49 5.49 0 0 0 4.09 4.65 5.48 5.48 0 0 0 6.07-2.57l.2.03c5 .76 21.58 2.8 25.58-3.1.95-1.4 1.67-3.8-.32-7.18zm-50.9-4.26c-.87-.66-.74-2.08-.2-2.8.35-.45 1.1-.9 1.65-1.02 3.72-1.08 7.74 4.54 10.35 9.74-5.7-2-9.7-4.35-11.8-5.92zm46.97 8.54c-1.36 2-7.56 2.15-15.08 1.54 4.5-3.68 10.46-7.18 13.4-4.67 1.63.97 2.1 2.5 1.67 3.13zM137.9 83.9l.28-.22c-.08.07-.18.14-.28.22zM168.83 63a12.35 12.35 0 0 1-7.97 3.02c-2.1 0-4.13-.52-5.9-1.48l-10.1 5.77c3.5 2.52 5.42 6.04 5.36 10-.02 1.75-.48 3.45-1.26 5.1l8.26-1.83c.7-.16 1.42-.24 2.14-.24 3.1 0 5.93 1.5 7.77 3.85l.7-2.72c1.12-4.48 5.14-7.6 9.75-7.6.83 0 1.65.1 2.46.3l.2.05c-.14-3.4 1.37-6.62 4.3-9.13l-15.7-5.1zm-66.38 44.02c-6.25-.36-11.4-1.28-15.43-2.74l-13.08 2.9c-2.6.57-4.23 3.13-3.66 5.72l5.3 24.08a10.45 10.45 0 0 1 1.46-.2l31.58-1.84-6.18-27.9zm61.57-14.82c-.58-2.58-3.13-4.22-5.73-3.65l-13.98 3.1c-3.08 3.05-7.1 5.84-11.32 8.28l7.32 33.14 32.3-1.92L164 92.2z"/><path d="M140.15 73.37c-1.34-.65-2.7-1.07-4-1.23-10.9-1.33-15.87 13.84-17.6 21.03a5.24 5.24 0 0 0-3.55-.47c-1.32.3-2.4 1.04-3.13 2.04-4.63-5.6-15.97-17.35-25.27-11.25-1.13.72-2.14 1.7-3.06 2.88-2.8 3.68-2.32 6.56-1.42 8.32 3.8 7.46 23.43 7.53 29.36 7.4l1.43-.04c1.2.9 2.78 1.3 4.35.97a5.28 5.28 0 0 0 3.45-2.55l1.37-.63c5.38-2.5 22.94-11.25 23.05-19.63.02-1.98-.82-4.78-4.96-6.83zM88.4 92.77c-.6-.77-.72-1.87-.08-2.7.5-.65 1.02-1.16 1.56-1.52 3.8-2.5 10.25 2.46 14.95 7.42-8.86-.4-15.1-1.42-16.43-3.2zm36.88-1.37c1.98-6.4 5.5-13.55 9.93-13.02.63.08 1.3.3 2.02.65.94.46 1.55 1 1.55 1.3-.02 2.2-5.87 6.87-13.5 11.06zm126.2 221.15c-8.86-39.95-14.63-113.3-2.06-175.04-.2-3.26-2.8-5.84-6.05-6l-166.05 9.8c-3.3.2-5.95 2.94-5.95 6.32 0 .14.04.26.05.4 6.47 37.58 8.65 103.8-4.7 165.37a6.27 6.27 0 0 0 5.18 5.96h174.28c3.02-.5 5.34-3.1 5.34-6.27-.01-.2-.03-.37-.03-.55zM196.9 165a6.29 6.29 0 0 1 6.29 6.29 6.29 6.29 0 0 1-6.3 6.28 6.28 6.28 0 1 1 0-12.57zm-78.5.32a6.27 6.27 0 0 1 6.28 6.27 6.29 6.29 0 0 1-6.28 6.3 6.29 6.29 0 0 1-6.28-6.3 6.27 6.27 0 0 1 6.28-6.27zm39.25 76.26c-25.15 0-45.53-20.4-45.53-45.55a6.28 6.28 0 0 1 12.56 0h.01c0 18.22 14.76 32.97 32.97 32.97 18.22 0 32.98-14.76 32.98-32.97h.01a6.28 6.28 0 0 1 6.28-6.28 6.29 6.29 0 0 1 6.3 6.28c-.01 25.16-20.4 45.55-45.57 45.55zM146.57 41.24l7.3 2.33a12.13 12.13 0 0 1 6.81-2.11 12.33 12.33 0 0 1 4.96 1.02l6.6-3.7.3-1.25c1.23-5.73-6.6.27-7.24.78a6.19 6.19 0 0 0-6.41-3.81c-2.82.3-4.97 2.46-5.42 5.13-.03.01-.03.02-.03.02s-9.85-4.74-7.3.8l.4.8zM699 151.95l-.57.06-.5.28c-10.97 6.27-20.35 18.66-23.92 31.57l-1.56 5.64 5.35-2.4c6.7-3 28.18-2.92 45.3 8 14.46 9.22 22.24 23.98 22.5 42.64 0 44.7-32 53.83-40.55 53.83-34.1 0-41.8-39.2-41.8-52.93L663.27 88h-2.76c-16.48 0-31.8 7.66-42 21l-.56.74v127.58c0 19.03 7.72 46.22 29.38 65.46 16.56 14.73 34.9 21.6 57.7 21.6 23.77 0 85.47-15.5 85.47-86.27-.2-21.22-6.23-38.37-18.95-53.97-22.53-27.63-59.24-33.68-72.55-32.18zm211.52-18.63c12.56 0 22.77-10.2 22.77-22.76S923.1 87.8 910.52 87.8s-22.77 10.2-22.77 22.77c0 12.55 10.22 22.76 22.77 22.76zm-22.35 39.98l-.57.74v149.9h2.76c16.24 0 32.44-7.74 42.28-20.2l.6-.75V152.46h-2.76c-16.5 0-32.3 7.8-42.3 20.85zm-318.4-85.2c-12.55 0-22.78 10.2-22.78 22.76s10.2 22.75 22.77 22.75 22.77-10.2 22.77-22.75-10.2-22.77-22.77-22.77zm-22.36 85.5l-.57.75v149.9h2.76c16.24 0 32.44-7.74 42.28-20.2l.6-.75V152.76h-2.76c-16.5-.01-32.3 7.8-42.3 20.85zm-189.16-21.65l-.57.06-.5.28c-10.97 6.28-20.36 18.67-23.9 31.57l-1.55 5.64 5.34-2.4c6.7-3 28.18-2.92 45.3 8 14.46 9.22 22.24 23.98 22.5 42.64 0 44.7-32 53.83-40.56 53.83-34.1 0-41.78-39.2-41.78-52.93V88h-2.76c-16.48 0-31.8 7.66-42 21l-.57.74V237.3c0 19.03 7.72 46.22 29.38 65.46 16.57 14.73 34.9 21.6 57.7 21.6 23.78 0 85.47-15.5 85.47-86.27-.2-21.2-6.24-38.36-18.96-53.97-22.53-27.63-59.28-33.68-72.54-32.17z"/><use xlink:href="#C"/><use xlink:href="#C" x="340.74"/></g><defs ><path id="B" d="M-617.12 53.1l-.5.7v262.17h2.77c17.58 0 35.02-8.7 42.4-21.18l.4-.65V31.4h-2.77c-16.64 0-33.24 8.5-42.3 21.68z"/><path id="C" d="M475.9 61.6l-.5.7v261.38h2.76c17.53 0 34.9-8.68 42.28-21.12l.38-.65V39.98h-2.76c-16.57 0-33.12 8.48-42.17 21.6z"/></defs></svg>