<svg id="Layer_1" data-name="Layer 1" xmlns="http://www.w3.org/2000/svg" viewBox="0 0 543.91 197.21"><defs><style>.cls-1,.cls-8{fill:#0094d9;}.cls-2{fill:#fff;}.cls-3{fill:#95c11f;}.cls-4{fill:#00b159;}.cls-5{fill:#e6007e;}.cls-6{fill:#f39200;}.cls-7{fill:#e30613;}.cls-8{fill-rule:evenodd;}</style></defs><path class="cls-1" d="M102.61,98.4H68.67a5.5,5.5,0,0,1,0-11h33.94a5.5,5.5,0,0,1,0,11Z" transform="translate(-16.11 -20.49)"/><path class="cls-2" d="M195.37,120.16c-2.66,15.68-17.54,28.4-33.23,28.4s-26.25-12.72-23.59-28.4a4.84,4.84,0,0,1,4.59-3.92,3.22,3.22,0,0,1,3.25,3.92h0c-1.92,11.35,5.72,20.56,17.08,20.56s22.13-9.21,24.05-20.56h0a4.83,4.83,0,0,1,4.58-3.92,3.22,3.22,0,0,1,3.26,3.92" transform="translate(-16.11 -20.49)"/><path class="cls-3" d="M196.85,72.3l1.75-32.39a2,2,0,0,0-.88-1.66l-12-6.24-4.4.5-12,8.71-.35.25a3.09,3.09,0,0,0-1.1,1.93l0,.4-1.72,32Z" transform="translate(-16.11 -20.49)"/><path class="cls-3" d="M188.36,22.87a3.17,3.17,0,0,0-3.58-2.36,4.79,4.79,0,0,0-3.89,3.18h0s-5.6-2.93-4.6.5a22.28,22.28,0,0,0,3.33,6.13s7.26-.12,9.49-1a37,37,0,0,0,3.84-6.91c1.36-3.55-4.12.16-4.57.48" transform="translate(-16.11 -20.49)"/><path class="cls-4" d="M197.89,30.69a37.24,37.24,0,0,0-.31-6.78l-10.13,5.21a3.76,3.76,0,0,0-2.8-1.13,5.29,5.29,0,0,0-3.77,1.71l-9.37-3.16A38.35,38.35,0,0,0,170,33.83a23.58,23.58,0,0,0,.62,6.45l9.48-4.93a3.7,3.7,0,0,0,3.13,1.53,5.41,5.41,0,0,0,4.3-2.37l9.16,3.15a42.43,42.43,0,0,0,1.23-7" transform="translate(-16.11 -20.49)"/><path class="cls-5" d="M181.62,80.48c19.22-1.13,37.37-2.21,45.64-2.67h.29l.41,0,5.72-13.56a2.62,2.62,0,0,0-1.6-3.74L192.09,50A3.67,3.67,0,0,0,188,52.25l-12,28.56,5.69-.33" transform="translate(-16.11 -20.49)"/><path class="cls-6" d="M208,78.93l9.76-21.87-11.5-3L194.76,79.71l13.2-.78" transform="translate(-16.11 -20.49)"/><path class="cls-6" d="M231.62,50.41a5.06,5.06,0,0,0-1.11-1.71c-4-4-12.32,2.24-15.19,4.63a2.68,2.68,0,0,0-1.82-1.54,3.65,3.65,0,0,0-2.58.35c-.82-3.4-3.42-11.48-9.47-9.79a7.78,7.78,0,0,0-2.15,1c-2.22,1.42-2.68,2.95-2.67,4,0,4.24,9,7.24,12.06,8.16a2.73,2.73,0,0,0,2,2.87,4,4,0,0,0,4-1.59l.12,0c3,.47,13.07,1.73,16.17-1.93a4,4,0,0,0,.56-4.44m-31.09-2.64c-.48-.41-.25-1.29.16-1.73a2.49,2.49,0,0,1,1.14-.63c2.42-.67,4.32,2.81,5.38,6a23.12,23.12,0,0,1-6.68-3.67m28.2,5.29c-1,1.24-4.91,1.33-9.5,1,3.17-2.29,7.23-4.46,8.8-2.9.91.61,1,1.55.7,1.94" transform="translate(-16.11 -20.49)"/><path class="cls-6" d="M122.39,84a7.43,7.43,0,0,1,.93-.13c9.93-.55,34.52-2,58.3-3.4l1.51-.09-1.24-24.13A2.47,2.47,0,0,0,178.73,54L124.5,65.55a3.63,3.63,0,0,0-2.87,3.54Z" transform="translate(-16.11 -20.49)"/><path class="cls-2" d="M166.59,51.13l.2-.14-.2.14" transform="translate(-16.11 -20.49)"/><path class="cls-7" d="M162.91,81.58l-1.23-24.11L142,61.66l1.08,21.09,19.84-1.17" transform="translate(-16.11 -20.49)"/><path class="cls-7" d="M169.08,44.6a6.88,6.88,0,0,0-2.35-.76c-6.62-.82-11.3,8.58-13.12,13a3.06,3.06,0,0,0-2.16-.29,4.09,4.09,0,0,0-2.15,1.27c-2.28-3.47-8.07-10.75-14.48-7a10,10,0,0,0-2.19,1.78c-2.13,2.28-2.13,4.07-1.75,5.16,1.57,4.62,13.72,4.67,17.41,4.57l.89,0a2.94,2.94,0,0,0,2.6.6,4.13,4.13,0,0,0,2.4-1.58l.92-.39c3.59-1.54,15.39-7,16.33-12.16.23-1.23,0-3-2.35-4.24m-34.1,12a1.39,1.39,0,0,1,.24-1.68,5.18,5.18,0,0,1,1.12-.94c2.63-1.55,6.1,1.52,8.49,4.6-5.45-.25-9.2-.89-9.85-2m23-.85c1.9-4,4.83-8.4,7.52-8.07a3.72,3.72,0,0,1,1.19.4c.53.29.86.62.82.81-.24,1.36-4.36,4.26-9.53,6.86" transform="translate(-16.11 -20.49)"/><path class="cls-1" d="M212.93,192.81c-1.29-24.76,2.84-70.21,17.12-108.47a3.22,3.22,0,0,0-3.12-3.71C208.56,81.68,141,85.7,123,86.71a4.85,4.85,0,0,0-4.34,3.91,1.94,1.94,0,0,0,0,.24c.06,23.29-5.55,64.33-20.3,102.47a3.18,3.18,0,0,0,2.58,3.7h108a4.93,4.93,0,0,0,4-3.88c0-.12,0-.23,0-.34" transform="translate(-16.11 -20.49)"/><path class="cls-2" d="M193.29,109.16a3.19,3.19,0,0,1-3.23-3.89,4.79,4.79,0,0,1,4.55-3.89,3.19,3.19,0,0,1,3.23,3.89,4.79,4.79,0,0,1-4.55,3.89" transform="translate(-16.11 -20.49)"/><path class="cls-2" d="M144.62,109.36a3.2,3.2,0,0,1-3.23-3.89,4.79,4.79,0,0,1,4.55-3.9,3.2,3.2,0,0,1,3.23,3.9,4.8,4.8,0,0,1-4.55,3.89" transform="translate(-16.11 -20.49)"/><path class="cls-2" d="M195.26,120.61c-2.64,15.58-17.43,28.22-33,28.22s-26.07-12.64-23.43-28.22a4.8,4.8,0,0,1,4.55-3.9,3.21,3.21,0,0,1,3.23,3.9h0c-1.91,11.28,5.69,20.43,17,20.43s22-9.15,23.9-20.43h0a4.82,4.82,0,0,1,4.56-3.9,3.21,3.21,0,0,1,3.23,3.9" transform="translate(-16.11 -20.49)"/><path class="cls-1" d="M117.81,118.54H69a5.46,5.46,0,0,1,0-10.92h48.78a5.46,5.46,0,0,1,0,10.92Zm-70.61,0a5.46,5.46,0,1,1,5.45-5.46A5.47,5.47,0,0,1,47.2,118.54Z" transform="translate(-16.11 -20.49)"/><path class="cls-1" d="M80.9,193H43.4a5.46,5.46,0,1,1,0-10.91H80.9a5.46,5.46,0,1,1,0,10.91Zm-59.33,0A5.46,5.46,0,1,1,27,187.58,5.46,5.46,0,0,1,21.57,193Z" transform="translate(-16.11 -20.49)"/><path class="cls-1" d="M129,165.81H56a5.46,5.46,0,1,1,0-10.91H129a5.46,5.46,0,1,1,0,10.91Z" transform="translate(-16.11 -20.49)"/><path class="cls-1" d="M90.6,142.86H26.69a5.29,5.29,0,1,1,0-10.58H90.6a5.29,5.29,0,0,1,0,10.58Z" transform="translate(-16.11 -20.49)"/><path class="cls-8" d="M120.35,199.67c5.69,0,5.69,8.63,0,8.63s-5.69-8.63,0-8.63Zm72.8,0c5.69,0,5.69,8.63,0,8.63S187.46,199.67,193.15,199.67Zm0-9.4A13.72,13.72,0,1,1,179.43,204,13.71,13.71,0,0,1,193.15,190.27Zm-72.8,0A13.72,13.72,0,1,1,106.64,204,13.71,13.71,0,0,1,120.35,190.27Z" transform="translate(-16.11 -20.49)"/><path class="cls-1" d="M267.89,79.72a17,17,0,0,1,6.16,1,12,12,0,0,1,4.46,2.89,10.58,10.58,0,0,1,2.5,4.45,14.2,14.2,0,0,1,.36,5.65c-.09.71-.18,1.35-.28,1.94l-.29,1.68c-.09.54-.19,1.09-.29,1.66s-.22,1.19-.36,1.86a17.88,17.88,0,0,1-2.29,5.68,17,17,0,0,1-3.95,4.42,17.88,17.88,0,0,1-5.34,2.89,19.66,19.66,0,0,1-6.46,1H248.53a1.08,1.08,0,0,1-.88-.4,1.14,1.14,0,0,1-.24-1L253,81.08a1.66,1.66,0,0,1,.57-1,1.51,1.51,0,0,1,1-.4Zm4.22,13.82q.69-5.78-5.85-5.78h-5.12l-3.28,19.1h5.38q6.33,0,7.57-5.78.24-1,.39-2c.11-.62.21-1.23.31-1.81s.21-1.19.31-1.79S272,94.24,272.11,93.54Z" transform="translate(-16.11 -20.49)"/><path class="cls-1" d="M284.88,114.9a1.09,1.09,0,0,1-.89-.4,1.14,1.14,0,0,1-.24-1l5.57-32.47a1.66,1.66,0,0,1,.57-1,1.54,1.54,0,0,1,1-.4h6.58a1.1,1.1,0,0,1,.89.4,1.12,1.12,0,0,1,.23,1l-5.57,32.47a1.54,1.54,0,0,1-.57,1,1.51,1.51,0,0,1-1,.4Z" transform="translate(-16.11 -20.49)"/><path class="cls-1" d="M319.05,79.22a16.63,16.63,0,0,1,5.75.93A14,14,0,0,1,329,82.53a9.51,9.51,0,0,1,2.51,3.22,6.08,6.08,0,0,1,.58,3.37,1.38,1.38,0,0,1-.46.78,1.2,1.2,0,0,1-.79.32H324.3a2.38,2.38,0,0,1-1.1-.2,2.92,2.92,0,0,1-.78-.6l-.39-.5a3.42,3.42,0,0,0-.8-.73,5.54,5.54,0,0,0-1.4-.66,7.29,7.29,0,0,0-2.16-.27,14.06,14.06,0,0,0-1.86.12,7.62,7.62,0,0,0-1.63.41,3.52,3.52,0,0,0-1.23.77,2.26,2.26,0,0,0-.65,1.26,1.58,1.58,0,0,0,.26,1.26A3.62,3.62,0,0,0,314,92a20.18,20.18,0,0,0,2.85.83c1.19.27,2.68.58,4.46,1a22.7,22.7,0,0,1,4.59,1.41A9,9,0,0,1,329,97.34a6.48,6.48,0,0,1,1.55,3,10.87,10.87,0,0,1,0,4.1,10.44,10.44,0,0,1-1.94,4.57,13.73,13.73,0,0,1-3.83,3.45,19.23,19.23,0,0,1-5.3,2.18,25.86,25.86,0,0,1-6.34.76,18.91,18.91,0,0,1-6.08-.91,13.79,13.79,0,0,1-4.44-2.39,9.27,9.27,0,0,1-2.62-3.34,6.7,6.7,0,0,1-.56-3.77,1.32,1.32,0,0,1,.46-.78,1.2,1.2,0,0,1,.79-.32h6.58a2.59,2.59,0,0,1,1.08.17,2.63,2.63,0,0,1,.71.53c.11.13.28.35.49.65A5.09,5.09,0,0,0,312,107a7.25,7.25,0,0,0,2.48.35,15.91,15.91,0,0,0,4.55-.57,2.7,2.7,0,0,0,2.14-2.09,1.31,1.31,0,0,0-.44-1.26,5.7,5.7,0,0,0-1.8-.93,27.16,27.16,0,0,0-3.2-.83c-1.31-.26-2.85-.6-4.63-1q-5-1.11-6.93-3.7T303,90.07A10.57,10.57,0,0,1,304.65,86a13.6,13.6,0,0,1,3.43-3.47A17.37,17.37,0,0,1,313,80.1,20,20,0,0,1,319.05,79.22Z" transform="translate(-16.11 -20.49)"/><path class="cls-1" d="M360.3,106.86a1.11,1.11,0,0,1,.88.4,1.16,1.16,0,0,1,.24,1l-.91,5.33a1.64,1.64,0,0,1-.57,1,1.53,1.53,0,0,1-1,.4H335.09a1.11,1.11,0,0,1-1.12-1.35l5.57-32.47a1.56,1.56,0,0,1,.57-1,1.51,1.51,0,0,1,1-.4h23.42a1.09,1.09,0,0,1,.89.4,1.16,1.16,0,0,1,.24,1l-.92,5.32a1.59,1.59,0,0,1-.56,1,1.56,1.56,0,0,1-1,.4H347.69l-.93,5.43h14.38a1.08,1.08,0,0,1,.88.4,1.16,1.16,0,0,1,.24,1l-.92,5.32a1.59,1.59,0,0,1-.56,1,1.56,1.56,0,0,1-1,.4H345.38l-1,5.63Z" transform="translate(-16.11 -20.49)"/><path class="cls-1" d="M386.77,79.72a17.11,17.11,0,0,1,6.16,1,12,12,0,0,1,4.45,2.89,10.6,10.6,0,0,1,2.51,4.45,14.2,14.2,0,0,1,.36,5.65c-.09.71-.19,1.35-.28,1.94s-.2,1.15-.29,1.68-.19,1.09-.29,1.66-.22,1.19-.37,1.86a18.1,18.1,0,0,1-2.28,5.68,17,17,0,0,1-3.95,4.42,17.81,17.81,0,0,1-5.35,2.89,19.62,19.62,0,0,1-6.46,1H367.41a1.11,1.11,0,0,1-1.12-1.35l5.57-32.47a1.56,1.56,0,0,1,.57-1,1.51,1.51,0,0,1,1-.4ZM391,93.54q.69-5.78-5.84-5.78H380l-3.28,19.1h5.38q6.33,0,7.58-5.78.22-1,.39-2c.11-.62.21-1.23.31-1.81s.2-1.19.31-1.79S390.89,94.24,391,93.54Z" transform="translate(-16.11 -20.49)"/><path class="cls-1" d="M403.75,114.9a1.12,1.12,0,0,1-1.12-1.35l5.57-32.47a1.56,1.56,0,0,1,.57-1,1.51,1.51,0,0,1,1-.4h6.59a1.08,1.08,0,0,1,.88.4,1.16,1.16,0,0,1,.24,1l-5.57,32.47a1.64,1.64,0,0,1-.57,1,1.53,1.53,0,0,1-1,.4Z" transform="translate(-16.11 -20.49)"/><path class="cls-1" d="M443.37,79.72a1.68,1.68,0,0,1,1.43.55,2.6,2.6,0,0,1,.54,1.11L450.87,113a2.26,2.26,0,0,1,.07.76,1.32,1.32,0,0,1-.46.78,1.27,1.27,0,0,1-.84.32h-6.33a1.74,1.74,0,0,1-1.36-.42,1.57,1.57,0,0,1-.39-.83l-.69-4.17H427.5l-2.12,4.17a2.39,2.39,0,0,1-.67.83,2.31,2.31,0,0,1-1.51.42h-6.33a.88.88,0,0,1-.72-.32.94.94,0,0,1-.2-.78,2.8,2.8,0,0,1,.33-.76l16.4-31.66a4.1,4.1,0,0,1,.92-1.11,2.32,2.32,0,0,1,1.62-.55Zm-11.92,22h8.15l-2-12.06Z" transform="translate(-16.11 -20.49)"/><path class="cls-1" d="M484.91,113.25a.79.79,0,0,1,.06.55,1.32,1.32,0,0,1-.46.78,1.27,1.27,0,0,1-.84.32h-8a1.78,1.78,0,0,1-1.1-.3,3,3,0,0,1-.76-.85l-7.45-12-2,11.77a1.68,1.68,0,0,1-1.59,1.35h-6.58a1.09,1.09,0,0,1-.89-.4,1.14,1.14,0,0,1-.24-1l5.58-32.47a1.59,1.59,0,0,1,.56-1,1.56,1.56,0,0,1,1-.4h6.58a1.1,1.1,0,0,1,.89.4,1.16,1.16,0,0,1,.24,1l-1.83,10.6,10.71-10.86c.21-.2.46-.43.78-.7a2.14,2.14,0,0,1,1.43-.4h7.84a.9.9,0,0,1,.72.32.93.93,0,0,1,.19.78,1.11,1.11,0,0,1-.24.56l-15,15.18Z" transform="translate(-16.11 -20.49)"/><path class="cls-1" d="M513.29,79.72a1.7,1.7,0,0,1,1.43.55,2.6,2.6,0,0,1,.54,1.11L520.78,113a2.08,2.08,0,0,1,.08.76,1.38,1.38,0,0,1-.46.78,1.27,1.27,0,0,1-.84.32h-6.33a1.72,1.72,0,0,1-1.36-.42,1.49,1.49,0,0,1-.39-.83l-.69-4.17H497.42l-2.12,4.17a2.52,2.52,0,0,1-.67.83,2.32,2.32,0,0,1-1.51.42h-6.33a.88.88,0,0,1-.72-.32.9.9,0,0,1-.2-.78,2.8,2.8,0,0,1,.33-.76l16.4-31.66a4,4,0,0,1,.91-1.11,2.37,2.37,0,0,1,1.63-.55Zm-11.92,22h8.14l-2-12.06Z" transform="translate(-16.11 -20.49)"/><path class="cls-1" d="M547.61,114.9a1.78,1.78,0,0,1-1.31-.45,2.54,2.54,0,0,1-.55-.7l-8.56-17.19-2.92,17a1.54,1.54,0,0,1-.57,1,1.51,1.51,0,0,1-1,.4h-6.59a1.08,1.08,0,0,1-.88-.4,1.14,1.14,0,0,1-.24-1l5.57-32.47a1.66,1.66,0,0,1,.57-1,1.54,1.54,0,0,1,1-.4h5.22a1.78,1.78,0,0,1,1.31.45,2.69,2.69,0,0,1,.55.7l8.56,17.19,2.92-17a1.56,1.56,0,0,1,.57-1,1.51,1.51,0,0,1,1-.4h6.59a1.08,1.08,0,0,1,.88.4,1.16,1.16,0,0,1,.24,1l-5.57,32.47a1.64,1.64,0,0,1-.57,1,1.53,1.53,0,0,1-1,.4Z" transform="translate(-16.11 -20.49)"/><path class="cls-1" d="M239,197.23a2.13,2.13,0,0,1-1.73-.78,2.22,2.22,0,0,1-.46-1.86l10.85-63.2a3.07,3.07,0,0,1,1.1-1.86,3,3,0,0,1,2-.79h31.51A27.38,27.38,0,0,1,293,130.55a15.69,15.69,0,0,1,6.39,4.7,14,14,0,0,1,2.73,6.55,22.85,22.85,0,0,1-.07,7.29,18.92,18.92,0,0,1-1.49,4.94,20.34,20.34,0,0,1-2.13,3.62,15.71,15.71,0,0,1-2.23,2.45c-.73.62-1.32,1.09-1.76,1.42a11.58,11.58,0,0,1,4.28,6.11,19.9,19.9,0,0,1,.08,8.37,29.62,29.62,0,0,1-2.52,7.82,22.31,22.31,0,0,1-5,6.8,24.35,24.35,0,0,1-7.82,4.8,29.64,29.64,0,0,1-10.87,1.81Zm18.06-15.17h16.14a7.54,7.54,0,0,0,5-1.71,6.91,6.91,0,0,0,2.49-4.25,4.94,4.94,0,0,0-1-4.26,5.48,5.48,0,0,0-4.4-1.71H259.13Zm26.72-32.58a4.82,4.82,0,0,0-.82-4.06c-.84-1-2.23-1.51-4.19-1.51H263.63l-1.92,11.15h15.17a7,7,0,0,0,4.71-1.52A6.61,6.61,0,0,0,283.8,149.48Z" transform="translate(-16.11 -20.49)"/><path class="cls-1" d="M356.66,181.58a2.11,2.11,0,0,1,1.72.78,2.18,2.18,0,0,1,.47,1.86l-1.78,10.37a3.15,3.15,0,0,1-1.1,1.86,3,3,0,0,1-2,.78H308.68a2.13,2.13,0,0,1-1.73-.78,2.19,2.19,0,0,1-.46-1.86l10.85-63.2a3.32,3.32,0,0,1,3.09-2.65h12.82a2.14,2.14,0,0,1,1.72.79,2.18,2.18,0,0,1,.46,1.86l-8.61,50.19Z" transform="translate(-16.11 -20.49)"/><path class="cls-1" d="M367.67,197.23a2.15,2.15,0,0,1-1.73-.78,2.22,2.22,0,0,1-.46-1.86l10.85-63.2a3.07,3.07,0,0,1,1.1-1.86,3,3,0,0,1,2-.79h12.81a2.16,2.16,0,0,1,1.73.79,2.21,2.21,0,0,1,.46,1.86l-10.85,63.2a3.1,3.1,0,0,1-1.1,1.86,3,3,0,0,1-2,.78Z" transform="translate(-16.11 -20.49)"/><path class="cls-1" d="M399.47,197.23a2.13,2.13,0,0,1-1.73-.78,2.22,2.22,0,0,1-.46-1.86l10.85-63.2a3.07,3.07,0,0,1,1.1-1.86,3,3,0,0,1,2-.79h31.5a27.44,27.44,0,0,1,10.75,1.81,15.58,15.58,0,0,1,6.38,4.7,14,14,0,0,1,2.74,6.55,22.85,22.85,0,0,1-.07,7.29A18.92,18.92,0,0,1,461,154a20.35,20.35,0,0,1-2.14,3.62,14.78,14.78,0,0,1-2.23,2.45c-.72.62-1.31,1.09-1.76,1.42a11.54,11.54,0,0,1,4.29,6.11,19.9,19.9,0,0,1,.08,8.37,29.62,29.62,0,0,1-2.52,7.82,22.47,22.47,0,0,1-5,6.8,24.46,24.46,0,0,1-7.82,4.8A29.66,29.66,0,0,1,433,197.23Zm18.06-15.17h16.14a7.54,7.54,0,0,0,5-1.71,6.91,6.91,0,0,0,2.49-4.25,4.94,4.94,0,0,0-1-4.26,5.48,5.48,0,0,0-4.4-1.71H419.58Zm26.72-32.58a4.82,4.82,0,0,0-.82-4.06c-.84-1-2.23-1.51-4.19-1.51H424.08l-1.92,11.15h15.17a7,7,0,0,0,4.71-1.52A6.61,6.61,0,0,0,444.25,149.48Z" transform="translate(-16.11 -20.49)"/><path class="cls-1" d="M517.11,181.58a2.11,2.11,0,0,1,1.72.78,2.22,2.22,0,0,1,.47,1.86l-1.78,10.37a3.11,3.11,0,0,1-1.11,1.86,3,3,0,0,1-2,.78h-45.3a2.13,2.13,0,0,1-1.72-.78,2.19,2.19,0,0,1-.46-1.86l10.84-63.2a3.08,3.08,0,0,1,1.11-1.86,3,3,0,0,1,2-.79H493.7a2.14,2.14,0,0,1,1.72.79,2.18,2.18,0,0,1,.46,1.86l-8.61,50.19Z" transform="translate(-16.11 -20.49)"/><path class="cls-1" d="M528.12,197.23a2.13,2.13,0,0,1-1.73-.78,2.22,2.22,0,0,1-.46-1.86l10.85-63.2a3.07,3.07,0,0,1,1.1-1.86,3,3,0,0,1,2-.79h12.82a2.12,2.12,0,0,1,1.72.79,2.22,2.22,0,0,1,.47,1.86L544,194.59a3.1,3.1,0,0,1-1.1,1.86,3,3,0,0,1-2,.78Z" transform="translate(-16.11 -20.49)"/></svg>