<svg xmlns="http://www.w3.org/2000/svg" width="24" height="25" viewBox="0 0 24 25">
    <defs>
        <linearGradient id="prefix__a" x1="50%" x2="50%" y1="5.728%" y2="93.496%">
            <stop offset="0%" stop-color="#0095DA"/>
            <stop offset="100%" stop-color="#123D89"/>
        </linearGradient>
        <linearGradient id="prefix__b" x1="10.709%" x2="93.627%" y1="50.085%" y2="50.085%">
            <stop offset="0%" stop-color="#FEB600"/>
            <stop offset="100%" stop-color="#FE7D00"/>
        </linearGradient>
        <linearGradient id="prefix__c" x1="74.161%" x2="3.413%" y1="50.078%" y2="50.078%">
            <stop offset="0%" stop-color="#FEB600"/>
            <stop offset="100%" stop-color="#FE7D00"/>
        </linearGradient>
        <linearGradient id="prefix__d" x1="50.077%" x2="50.077%" y1="13.475%" y2="104.189%">
            <stop offset="0%" stop-color="#0095DA"/>
            <stop offset="100%" stop-color="#123D89"/>
        </linearGradient>
        <linearGradient id="prefix__e" x1="36.449%" x2="60.929%" y1="17.435%" y2="75.145%">
            <stop offset="0%" stop-color="#FFF"/>
            <stop offset="100%" stop-color="#BDBDBD"/>
        </linearGradient>
    </defs>
    <g fill="none" fill-rule="evenodd">
        <path d="M0 0H24V24H0z" transform="translate(0 1)"/>
        <g fill-rule="nonzero">
            <path fill="url(#prefix__a)" d="M23.009 8.046l-2.926-5.034C19.008 1.162 17.028 0 14.877 0H8.94C6.788 0 4.81 1.162 3.734 3.012L.808 8.046C-.311 9.982-.268 12.348.937 14.24l2.754 4.432c1.118 1.764 3.011 2.84 5.12 2.84h6.195c2.065 0 4.002-1.076 5.12-2.84l2.754-4.432c1.205-1.893 1.248-4.26.129-6.195z" transform="translate(0 1) translate(0 1.333)"/>
            <path fill="url(#prefix__b)" d="M3.648 9.035l16.564 3.916 1.85-3.27c.56-1.033.56-2.324-.043-3.356l-1.936-3.313C19.008 1.162 17.028 0 14.877 0H8.94C6.788 0 4.81 1.162 3.734 3.012L.808 8.046C-.311 9.982-.268 12.348.937 14.24l.904 1.42c-.603-1.032-.603-2.323-.044-3.356l1.85-3.27z" transform="translate(0 1) translate(0 1.333)"/>
            <path fill="url(#prefix__c)" d="M23.009 8.046l-.99-1.764c.603 1.032.603 2.323.043 3.356l-1.85 3.27L3.648 9.035l-1.85 3.27c-.56 1.033-.56 2.324.043 3.356l1.85 3.012c1.118 1.764 3.011 2.84 5.12 2.84h6.195c2.065 0 4.002-1.076 5.12-2.84l2.754-4.432c1.205-1.893 1.248-4.26.129-6.195z" transform="translate(0 1) translate(0 1.333)"/>
            <path fill="#F47C20" d="M14.662 3.184H9.155c-1.248 0-2.367.645-2.969 1.72l-2.71 4.69c-.646 1.12-.603 2.453.043 3.529l2.624 4.216c.645.99 1.721 1.635 2.926 1.635h5.636c1.205 0 2.28-.602 2.926-1.635l2.624-4.216c.689-1.076.689-2.453.043-3.528l-2.71-4.69c-.56-1.076-1.721-1.721-2.926-1.721z" transform="translate(0 1) translate(0 1.333)"/>
            <path fill="url(#prefix__d)" d="M14.662 2.883H9.155c-1.248 0-2.367.645-2.969 1.72l-2.71 4.69c-.646 1.12-.603 2.453.043 3.529l2.624 4.216c.645.99 1.721 1.635 2.926 1.635h5.636c1.205 0 2.28-.602 2.926-1.635l2.624-4.216c.689-1.076.689-2.453.043-3.529l-2.71-4.69c-.56-1.075-1.721-1.72-2.926-1.72z" transform="translate(0 1) translate(0 1.333)"/>
            <path fill="#123D89" d="M3.475 9.853l2.711-4.69c.602-1.076 1.764-1.98 2.969-1.98h5.507c1.248 0 2.366.904 2.969 1.98l2.71 4.69c.259.43.388.946.43 1.42.044-.689-.085-1.377-.43-1.98l-2.71-4.69c-.603-1.075-1.764-1.72-2.969-1.72H9.155c-1.248 0-2.367.645-2.969 1.72l-2.71 4.69c-.345.603-.517 1.291-.43 1.98.042-.517.171-.99.43-1.42z" transform="translate(0 1) translate(0 1.333)"/>
            <g>
                <path fill="#FFF" d="M5.421 9.724c-.344 0-.645-.13-.903-.345L.73 6.153c-.473-.474-.473-1.291 0-1.764.474-.474 1.291-.474 1.764 0L5.25 6.583 9.466.903C9.896.345 10.67.216 11.23.646c.559.388.688 1.205.258 1.721L6.454 9.207c-.215.302-.56.474-.904.517h-.129z" transform="translate(0 1) translate(0 1.333) translate(5.455 6.024)"/>
                <path fill="url(#prefix__e)" d="M2.538 4.389c-.473-.474-1.29-.474-1.764 0-.473.473-.473 1.247 0 1.764l1.85 1.592c.259.215.56.344.904.344h.086c.387-.043.689-.215.904-.517l.731-1.032-2.71-2.151z" transform="translate(0 1) translate(0 1.333) translate(5.455 6.024)"/>
            </g>
        </g>
    </g>
</svg>
